<?xml version="1.0" encoding="utf-8"?>
<!-- Generator: Adobe Illustrator 24.0.3, SVG Export Plug-In . SVG Version: 6.00 Build 0)  -->
<svg version="1.1" id="Calque_1" xmlns="http://www.w3.org/2000/svg" xmlns:xlink="http://www.w3.org/1999/xlink" x="0px" y="0px"
	 viewBox="0 0 131.66 131.66" style="enable-background:new 0 0 131.66 131.66;" xml:space="preserve">
<style type="text/css">
	.st0{fill:url(#SVGID_1_);}
	.st1{fill-rule:evenodd;clip-rule:evenodd;fill:#FFFFFF;}
	.st2{fill:#FFFFFF;}
	.st3{opacity:0.15;fill:url(#SVGID_2_);}
	.st4{opacity:0.51;}
	.st5{fill:url(#SVGID_3_);}
</style>
<linearGradient id="SVGID_1_" gradientUnits="userSpaceOnUse" x1="65.8312" y1="131.6623" x2="65.8312" y2="7.689678e-06">
	<stop  offset="0.4594" style="stop-color:#000000"/>
	<stop  offset="0.929" style="stop-color:#5D5041"/>
</linearGradient>
<path class="st0" d="M103.22,131.66H28.45C12.74,131.66,0,118.93,0,103.22V28.45C0,12.74,12.74,0,28.45,0h74.77
	c15.71,0,28.45,12.74,28.45,28.45v74.77C131.66,118.93,118.93,131.66,103.22,131.66z"/>
<g>
	<g>
		<path class="st1" d="M85.18,106.18c-1.1-0.6,1.25-2.46,1.36-3.11c0.5-0.4,1.15-1.2,0.7-2.01l0,0c-1.2,1-0.35-1.3-0.4-1.46
			c-0.2-0.6-1.41,0.35-2.06,0.25c-0.1-1.05,0.15-1.71-1.1-1.15c-0.25-0.55-0.65,0-1.05,0.1c0.4-0.45,0.65-1.1,1-1.46
			c0.2-0.25,0.95-0.6,1.36-0.65c0.05,0.75,1.71-0.55,0.55-0.95c-0.5-0.15-0.65,0.3-1.05,0.4c-0.3,0.05-0.8-0.05-1.2,0.05
			c0.1-0.3-0.1-1.1,0.1-1.25c0.25-0.2,0.4,0.15,0.6,0.1c0.25-0.05,0.55-0.4,0.75-0.4c0.25,0,0.05,0.45,0.5,0.4
			c0.25-0.1,0.45-0.5,0.5-0.7c0.15-0.55-0.25-0.85-0.3-1.36c-0.05-0.15,0.2-0.35,0.2-0.6c-0.05-0.25-0.4-0.5-0.5-0.75
			c-0.2-0.5,0-0.9-0.75-1.2c-0.7-0.2-1,0.4-1.66,0.1c-0.35-0.1-1.51-1-1.46-1.25c0.2-0.9,1.56-0.2,2.01-0.05
			c0.45,0.15,0.3,0,0.7,0.3c0.3,0.25,0.35,0.5,0.75,0.7c0.5,0.2,1.71,0.4,1.36-0.45c0.5-0.2,0.05-0.4,0.2-0.7
			c0.15-0.3,0.75-0.55,0.75-0.85c0.1-0.5-0.3-0.2-0.55-0.5c-0.25-0.25-0.4-0.6-0.75-0.9c0.6-0.35,1,0.15,1.56,0.3
			c0.7,0.2,0.7-0.05,1.3-0.5c0.9-0.7,1.41-0.3,1.51-1.61c0.05-0.95-0.1-2.06-0.8-2.81c-0.4-0.4-0.95-0.3-1.2-0.65
			c-0.3-0.35-0.25-1.05,0.05-1.41c0.2-0.3,1.1-0.7,1.41-0.35c0.25,0.25-0.1,0.65,0.45,1c-0.15,0.1-0.3,0.2-0.4,0.25
			c-0.05,0.1,0.1,0.1,0.1,0.15c-0.05,0.05-0.15,0.1-0.2,0.2c0.45,0.15,0.25,0.5,0.55,0.75c0.25,0.25,0.6,0.25,0.9,0.5
			c0.55,0.45,0.6,1.51,1.41,0.7c0.2-0.15,0.45-0.75,0.45-1c0-0.35-0.45-0.55-0.45-0.75c0.05-0.9,0.55,0.45,0.9,0.6
			c-0.05-0.35-0.15-0.55-0.05-0.85c0.35,0.45,0.45,1.66,0.9,2.01c0.65,0.5,1.81-1.15,1.25-1.36c0.1-0.4,0.15-1.3,0.7-1.25
			c0.1,0.1,0.3,0.1,0.45,0.2h-0.05c0.2-0.1,0.2,0.05,0.35-0.15c0.2-0.05,0.45-0.05,0.6,0.05l0,0c-0.3,0.65-0.3,1.15-0.45,1.76
			c-0.6,0.1-0.25,0.65,0.2,0.65l0,0c0,0.1,0.05,0.25,0.05,0.3c0.25-0.05,0.4,0,0.65,0.15c0.05-0.1,0.2-0.25,0.2-0.35
			c0.8,0.5,0.7-0.5,0.85-0.95c0.5,0.4-0.05,0.9,0.5,1.36c0.45,0.4,0.75,0.2,1.36,0.2c0.5,0,1.3,0.25,1.71,0
			c0.4-0.15,0.75-0.9,0.4-1.3c0.25-0.15,1.3-1.3,1.66-0.85c0.25,0.3-0.3,0.7-0.4,0.9c-0.25,0.5-0.25,0.2-0.2,0.75
			c0.1,0.85,0.55,0.45,0.95,0.75c0.45,0.3,0.65,1.15,0,1.46c0.15,0.15,0.25,0.45,0.4,0.65c0.2,0.3,0.1,0.3,0.3,0.5
			c0.4,0.35,0.8,0.45,1.41,0.2c0.35-0.15,1.2-0.85,1.51-0.15c0.1,0.35-0.6,1.25-0.75,1.46c-0.15,0.15-0.3-0.05-0.5,0.3
			c-0.1,0.25-0.1,0.5,0,0.7c0.1,0.35,1.05,0.75,1.15,1.05c0.2,0.5-0.25,0.85-0.35,1.35c-0.15,0.75,0.1,0.7,0.55,1.05
			c0.15,0.1,0.25,0.05,0.4,0c0.1,0.8,1.81,0.35,1.81,1.15c-0.05,0.5-0.75,0.15-1.05,0.25c-0.3,0.1-0.55,0.5-1,0.5
			c0.05,0.75-0.45,0.8-0.8,1.3c-0.6,0.85,0.05,0.5,0.3,1.15c0.25,0.6-0.15,0.85,0.2,1.51c0.3,0.6,0.85,0.9,0,1.3
			c-0.9,0.45-0.4-0.45-1.15-0.5c-0.1,0-1.05,0.75-1.1,0.85c-0.2,0.5,0.3,1.2,0.55,1.61c0.15,0.25,0.85,0.85,0.8,1.2
			c-0.1,1-1.66-0.15-1.61-0.75c-0.05,0.1-0.15,0.15-0.2,0.2c-0.1-0.1-0.25-0.2-0.35-0.35c-0.1,0.05-0.2,0.1-0.3,0.1
			c0.25,0.25,0.6,0.65,0.3,0.95c-0.45,0.45-0.55-0.3-0.65-0.35c-0.5-0.05-1.51,0.55-1.91,0.85c0.35,0.1,1.46,0.4,0.45,0.75
			c0.4,0.7-0.35,1.41-0.1,2.16c0.15,0.45,1.81,1.56,0.9,2.11c-0.55,0.35-1.05-1.61-1.3-2.11c-0.3-0.45-0.4-0.45-0.8-0.8
			c-0.25-0.25-0.4-0.8-0.75-1.05c-0.4,0.9-1.71,0.6-2.11,1.71c-0.4,1.05,0.75,1.91,0.6,2.81c0,0.4-0.4,1.2-0.8,1.3
			c-0.8,0.2-0.4-0.55-0.6-1.05c-0.2-0.55-0.55-0.6-0.65-1.3c-0.05-0.15-0.15-0.65-0.1-0.8c0.05-0.2,0.45-0.5,0.45-0.6
			c0.05-0.9-0.6-0.6-1.15-0.6c-0.25,0-0.55-0.25-0.85-0.15c-0.3,0.1-0.3,0.45-0.6,0.6c-0.25,0.15-1.56,0.35-1.81,0.25
			c-0.3-0.15-0.1-0.6-0.55-0.65c-0.45,0-0.55,0.5-0.3,0.75c-0.9,1.05-1.05-1-1.1-1.46c-0.15-0.55-0.05-0.9-0.6-1.36
			c-0.35-0.3-0.85-0.55-1.1,0c-0.65-0.75-2.01-0.9-2.91-0.1c-0.55,0.55-0.9,2.11-2.01,2.01"/>
	</g>
	<g>
		<path class="st1" d="M104.6,81.14c0.1-0.2,0.75-1.51,1.1-1.3c0.25,0.15-0.6,1.51-1.05,1.2"/>
	</g>
	<g>
		<path class="st1" d="M109.17,88.21c0.45-0.05,0.65-0.55,1.1-0.5c-0.15,0.45-1.41,1.15-1.05,0.5"/>
	</g>
	<g>
		<path class="st1" d="M92.91,81.04c-0.05-0.2-1.05-1.66-0.35-1.46c0.4,0.1,0.4,1.15,0.45,1.51"/>
	</g>
	<g>
		<path class="st1" d="M86.98,84.85c0.15,0.15,0.4,0.35,0.55,0.45c0.05-0.35-0.25-0.8-0.6-0.7c0,0.1,0.1,0.15,0.1,0.2"/>
	</g>
	<g>
		<path class="st1" d="M79.15,87.16c-0.1,0.05-0.2,0.05-0.3,0.1v0.1c0.3,0.2,0.75,0.05,1-0.2c-0.25-0.25-0.65-0.2-0.95,0.1"/>
	</g>
	<g>
		<path class="st1" d="M79.86,87.61C80.76,87.86,80.16,86.96,79.86,87.61"/>
	</g>
	<g>
		<path class="st1" d="M80.61,87.86c0.2,0.1,0.5,0.1,0.7,0.15c-0.15-0.25-0.4-0.3-0.7-0.2"/>
	</g>
	<g>
		<path class="st1" d="M78.15,87.96c-0.35,0.65,0.6,0.25,0-0.05"/>
	</g>
	<g>
		<path class="st1" d="M82.06,98.55c-0.3,0.05-0.55,0.2-0.65,0.45c0.35-0.05,0.65-0.15,0.85-0.4c-0.2-0.2-0.2,0-0.35,0.05"/>
	</g>
	<g>
		<path class="st1" d="M85.43,103.37c-0.25,0.2-0.5,0.4-0.6,0.65c0.35-0.2,0.75-0.5,0.9-0.85c-0.2,0.05-0.25,0.15-0.35,0.25"/>
	</g>
	<g>
		<path class="st1" d="M84.07,104.53c-0.25,0.1-0.4,0.25-0.45,0.45c0.3-0.05,0.65-0.35,0.5-0.5"/>
	</g>
	<g>
		<path class="st1" d="M92.2,107.89c0.1,0.4-0.6,1.66-0.1,1.66c0.6,0,0.2-1.36,0.15-1.71"/>
	</g>
	<g>
		<path class="st1" d="M105,104.78c0.05,0.1,0.4,0.45,0.5,0.6c0.05-0.35-0.25-0.55-0.55-0.75"/>
	</g>
	<g>
		<path class="st1" d="M109.52,104.68c0.3,0.2,0.5,0.5,0.65,0.8c0.3-0.45-0.4-0.7-0.75-0.8"/>
	</g>
	<g>
		<path class="st1" d="M109.37,92.63c0.15-0.05,1.56-0.5,1.25,0c-0.25,0.35-1,0.05-1.36,0.05"/>
	</g>
	<g>
		<path class="st1" d="M108.67,97.15c0.35-0.05,0.85-0.15,1.15,0c0.6,0.2,0.15,0.35-0.25,0.3c0.2,0.3,0.6,0.55,0.55,1
			C109.62,98.45,108.87,97.55,108.67,97.15"/>
	</g>
	<g>
		<path class="st1" d="M111.83,97.25c0.25,0.2,0.5,0.55,0.8,0.75c0.1-0.45-0.45-0.95-0.9-0.8"/>
	</g>
	<g>
		<path class="st1" d="M113.43,97.75c0.2,0.05,0.4,0.05,0.55,0.1c0.05-0.4-0.4-0.4-0.7-0.15"/>
	</g>
	<g>
		<path class="st1" d="M87.64,85.65c0.15,0.2,0.2,0.35,0.45,0.25c-0.15-0.2-0.3-0.25-0.5-0.25"/>
	</g>
	<g>
		<path class="st1" d="M98.38,111.75c0,0.1,0.15,1.76,0.35,1.2c0.15-0.4-0.2-0.9-0.45-1.2"/>
	</g>
	<g>
		<path class="st1" d="M101.64,108.49c0,0,0.3,0.45,0.35,0.65c0.3-0.35-0.2-0.6-0.5-0.8"/>
	</g>
</g>
<g>
	<g>
		<g>
			<path d="M112.16,35.76c-1.41-3.2-3.7-6.22-6.82-8.98c-2.8-2.44-6-4.25-9.5-5.37c-3.47-1.11-7.09-1.68-10.74-1.68
				c-2.73,0-5.46,0.29-8.12,0.87c-2.65,0.57-5.19,1.4-7.55,2.45c-2.37,1.06-4.56,2.36-6.51,3.87c-1.84,1.43-3.42,3.04-4.71,4.79
				c-2.23,0.2-4.4,0.77-6.46,1.71c-2.18,0.99-4.12,2.26-5.78,3.77c-1.67,1.52-3.02,3.28-4.02,5.21c-1.02,1.97-1.53,4.02-1.53,6.11
				c0,1.51,0.32,3.06,0.94,4.58c0.49,1.19,1.2,2.34,2.11,3.43c-0.34,0.21-0.68,0.45-1,0.7c-0.45,0.36-0.89,0.71-1.3,1.05
				c-3.05-1.47-6.19-2.21-9.35-2.21c-2.05,0-4.2,0.42-6.42,1.25c-2.21,0.83-4.25,2.05-6.08,3.63c-1.83,1.58-3.36,3.54-4.55,5.8
				c-1.21,2.3-1.83,4.96-1.83,7.89c0,1.76,0.28,3.49,0.84,5.13c0.55,1.62,1.32,3.19,2.29,4.65c0.97,1.46,2.16,2.82,3.53,4.05
				c1.37,1.23,2.89,2.31,4.54,3.24c0.37,0.21,0.75,0.4,1.13,0.58c0.24,0.11,0.49,0.24,0.75,0.38c0.37,1.88,0.92,3.66,1.64,5.29
				c0.8,1.81,1.87,3.38,3.16,4.68c1.31,1.31,2.9,2.35,4.74,3.09c1.83,0.74,3.98,1.12,6.38,1.12c2.05,0,4.11-0.28,6.13-0.82
				c1.98-0.54,3.92-1.24,5.77-2.09c1.84-0.85,3.61-1.84,5.25-2.92c1.64-1.08,3.13-2.22,4.43-3.36c2.25-1.93,4.35-4.17,6.25-6.63
				c1.88-2.44,3.64-5.08,5.25-7.84c1.6-2.75,3.1-5.66,4.47-8.64c1.22-2.67,2.41-5.38,3.55-8.09c1.42,0.57,2.83,1.01,4.19,1.29
				c1.65,0.34,3.28,0.52,4.85,0.52c1.52,0,3.01-0.16,4.44-0.46c0.04-0.17,0.1-0.33,0.18-0.49c-0.57-1.51,0-3.17,1.39-4.07
				c0.66-0.43,1.46-0.52,2.23-0.39c0.18-0.07,0.37-0.13,0.56-0.18c0.01-0.01,0.02-0.01,0.03-0.02c0.17-0.15,0.45-0.26,0.65-0.38
				c0.05-0.03,0.1-0.07,0.15-0.1c0.02-0.01,0.02-0.02,0.04-0.04c0.16-0.21,0.43-0.39,0.63-0.58c0.24-0.24,0.45-0.49,0.68-0.73
				c0.04-0.05,0.07-0.07,0.09-0.09c0.02-0.03,0.03-0.05,0.06-0.1c0.13-0.21,0.28-0.41,0.4-0.63c0.12-0.21,0.37-0.88,0.02,0.03
				c0.22-0.58,0.54-1.06,0.93-1.45c0.1-0.13,0.2-0.26,0.3-0.38c0.42-0.41,0.91-0.7,1.47-0.86c0.3-0.04,0.59-0.08,0.89-0.12
				c0.46-0.02,0.89,0.08,1.28,0.29c0.41,0.13,0.77,0.36,1.07,0.69c0.16,0.15,0.3,0.32,0.42,0.5c0.02,0,0.04,0,0.05-0.01
				c0.99-1.44,1.84-3,2.53-4.67c1.13-2.76,1.7-5.67,1.7-8.65C114.28,42.18,113.56,38.95,112.16,35.76z M65.08,35.13
				c1.22,0.23,2.45,0.64,3.65,1.22c1.46,0.71,2.77,1.62,3.89,2.71c1.12,1.09,2.04,2.31,2.73,3.63c0.66,1.28,1,2.57,1,3.84
				c0,0.52-0.05,1.03-0.15,1.53c-0.09,0.44-0.25,0.84-0.48,1.19c-0.2,0.31-0.5,0.57-0.91,0.79c-0.4,0.22-0.94,0.32-1.59,0.32
				c-0.89,0-1.86-0.2-2.89-0.61c-1.02-0.4-2-1.03-2.9-1.87c-0.9-0.85-1.66-1.93-2.27-3.21c-0.6-1.26-0.9-2.79-0.9-4.54
				C64.27,38.59,64.54,36.91,65.08,35.13z M48.74,43.59c0.47-1.46,1.15-2.78,2.03-3.93c0.88-1.15,1.97-2.16,3.23-2.99
				c0.72-0.47,1.51-0.87,2.36-1.2c-0.3,0.7-0.57,1.43-0.81,2.19c-0.49,1.54-0.74,3.08-0.74,4.57c0,2.88,0.5,5.41,1.49,7.5
				c0.46,0.98,0.99,1.89,1.59,2.73c-0.56-0.08-1.14-0.12-1.72-0.12c-1.39,0-2.8,0.18-4.19,0.52c-1.04,0.26-2.06,0.59-3.05,0.97
				c-0.6-1.87-0.9-3.73-0.9-5.56C48.03,46.63,48.27,45.06,48.74,43.59z M41.64,67.63c0.5,0.46,1.04,0.92,1.6,1.36l0.73,0.57
				l0.59-0.72c0.43-0.53,0.76-1.17,0.96-1.91c0.2-0.7,0.3-1.43,0.3-2.18v-0.08l-0.01-0.08c-0.08-0.47-0.16-0.91-0.24-1.33
				c-0.06-0.29-0.14-0.57-0.25-0.84c0.71-0.74,1.48-1.47,2.3-2.18c0.51,0.33,1.04,0.66,1.6,0.97c0.77,0.44,1.63,0.88,2.53,1.31
				l1.14-1.45c-0.51-0.62-0.98-1.29-1.41-1.98c-0.28-0.46-0.53-0.91-0.76-1.34c0.9-0.68,1.84-1.28,2.82-1.78
				c1.12-0.57,2.3-0.86,3.5-0.86c1,0,1.94,0.22,2.77,0.65c0.85,0.45,1.61,1.05,2.25,1.81c0.64,0.76,1.14,1.67,1.49,2.72
				c0.35,1.07,0.53,2.2,0.53,3.37c0,2.54-0.48,4.97-1.41,7.24c-0.96,2.31-2.15,4.46-3.56,6.38c-1.41,1.94-2.97,3.72-4.63,5.28
				c-1.68,1.59-3.25,2.97-4.62,4.09c-4.51,3.28-9.41,4.94-14.58,4.94c-1.08,0-2.17-0.08-3.25-0.22c-0.81-0.11-1.63-0.27-2.47-0.46
				c1.81-8.93,5.62-16.96,11.35-23.88C41.16,67.2,41.4,67.41,41.64,67.63z M25.88,88.85v0.7c-1.22-0.58-2.37-1.28-3.43-2.09
				c-1.43-1.1-2.68-2.39-3.71-3.82c-1.03-1.43-1.83-2.98-2.38-4.61c-0.54-1.59-0.81-3.23-0.82-4.87c0.37-1.75,0.98-3.34,1.81-4.73
				c0.85-1.41,1.89-2.62,3.1-3.59c1.2-0.97,2.58-1.72,4.1-2.23c1.53-0.51,3.15-0.77,4.82-0.77c1.17,0,2.38,0.13,3.59,0.39
				c0.8,0.17,1.61,0.41,2.42,0.71c-2.95,3.28-5.26,6.97-6.85,10.97C26.78,79.33,25.88,84.02,25.88,88.85z M77.62,58.63l-5.5,10.48
				c-1.83,3.48-3.68,6.87-5.51,10.07c-1.82,3.18-3.67,6.18-5.5,8.91c-1.8,2.7-3.64,5.02-5.46,6.92c-5.34,5.67-10.53,8.55-15.44,8.55
				c-1.62,0-3.11-0.28-4.44-0.83c-1.33-0.55-2.48-1.32-3.41-2.29c-0.93-0.97-1.67-2.14-2.18-3.49c-0.39-1.03-0.64-2.16-0.74-3.38
				c2.17,0.43,4.2,0.64,6.05,0.64c1.98,0,4.16-0.32,6.48-0.97c2.32-0.64,4.7-1.67,7.07-3.07c2.36-1.39,4.72-3.21,7.01-5.4
				c2.3-2.2,4.46-4.91,6.44-8.08c0.48-0.79,0.96-1.69,1.44-2.66c0.48-0.98,0.92-2.05,1.32-3.19c0.4-1.14,0.73-2.34,0.99-3.55
				c0.27-1.24,0.4-2.53,0.4-3.84c0-0.61-0.05-1.33-0.15-2.13c-0.1-0.8-0.27-1.6-0.5-2.38c-0.09-0.3-0.18-0.59-0.29-0.86
				c1.07,0.29,2.16,0.44,3.25,0.44c1.27,0,2.53-0.22,3.76-0.67c1.25-0.45,2.37-1.16,3.34-2.1c0.96-0.93,1.74-2.11,2.33-3.51
				c0.59-1.39,0.89-3.04,0.89-4.91c0-1.87-0.38-3.68-1.13-5.39c-0.74-1.68-1.77-3.23-3.06-4.58c-1.29-1.35-2.83-2.5-4.58-3.42
				c-1.39-0.73-2.88-1.29-4.43-1.67c0.6-1.14,1.37-2.18,2.3-3.11c1.23-1.23,2.66-2.28,4.26-3.12c1.61-0.85,3.37-1.51,5.22-1.95
				c1.86-0.45,3.8-0.67,5.78-0.67c2.9,0,5.8,0.52,8.61,1.54c2.39,0.87,4.55,2.2,6.44,3.96c-1.53,0.88-3.05,2.12-4.54,3.7
				c-1.83,1.95-3.69,4.3-5.53,6.98c-1.83,2.67-3.69,5.67-5.52,8.92C81.3,51.76,79.45,55.16,77.62,58.63z M103.87,51.42
				c-0.94,2.39-2.33,4.55-4.14,6.41c-1.81,1.86-4.03,3.37-6.62,4.48c-2.58,1.11-5.55,1.67-8.83,1.67h-0.14
				c1.36-3.37,2.69-6.74,3.96-10.04c1.4-3.63,2.83-7.03,4.25-10.1c1.41-3.04,2.89-5.74,4.41-8.02c1.27-1.91,2.66-3.4,4.14-4.45
				c1.4,1.81,2.47,3.74,3.18,5.75c0.79,2.26,1.2,4.56,1.2,6.85C105.28,46.51,104.81,49.02,103.87,51.42z"/>
			<path class="st2" d="M56.52,35.53l0.15-0.36l-0.37,0.14c-0.86,0.33-1.66,0.74-2.39,1.21c-1.28,0.84-2.38,1.86-3.27,3.02
				c-0.89,1.17-1.59,2.51-2.06,3.98c-0.48,1.49-0.72,3.08-0.72,4.74c0,1.84,0.31,3.73,0.91,5.61l0.05,0.17l0.16-0.06
				c0.98-0.38,2-0.71,3.03-0.96c1.38-0.34,2.77-0.52,4.15-0.52c0.58,0,1.15,0.04,1.7,0.12l0.38,0.05l-0.22-0.32
				c-0.59-0.83-1.12-1.74-1.57-2.7c-0.98-2.07-1.47-4.58-1.47-7.43c0-1.47,0.25-2.99,0.74-4.52C55.96,36.95,56.23,36.22,56.52,35.53
				z M54.65,42.22c0,2.91,0.51,5.46,1.5,7.58c0.41,0.87,0.87,1.69,1.39,2.45c-1.82-0.2-3.73-0.01-5.6,0.45
				c-0.98,0.25-1.96,0.55-2.9,0.91c-0.56-1.79-0.84-3.59-0.84-5.34c0-1.62,0.24-3.19,0.7-4.64c0.46-1.44,1.14-2.75,2.01-3.88
				c0.87-1.14,1.95-2.13,3.19-2.95c0.6-0.4,1.26-0.74,1.96-1.04c-0.24,0.59-0.46,1.21-0.66,1.83C54.9,39.16,54.65,40.72,54.65,42.22
				z"/>
			<path class="st2" d="M44.43,68.74l-0.48,0.59l-0.6-0.47c-0.56-0.44-1.09-0.89-1.59-1.35c-0.24-0.22-0.49-0.43-0.75-0.63
				l-0.13-0.1l-0.1,0.12c-5.74,6.94-9.57,15-11.39,23.95l-0.03,0.16l0.16,0.04c0.83,0.2,1.67,0.35,2.48,0.46
				c1.09,0.15,2.19,0.22,3.27,0.22c5.2,0,10.14-1.67,14.69-4.98c1.4-1.13,2.95-2.51,4.63-4.09c1.67-1.57,3.23-3.36,4.65-5.31
				c1.41-1.94,2.62-4.1,3.58-6.42c0.95-2.28,1.42-4.74,1.42-7.3c0-1.19-0.18-2.34-0.54-3.42c-0.36-1.07-0.87-2-1.52-2.77
				c-0.65-0.77-1.42-1.39-2.3-1.85c-0.85-0.44-1.81-0.67-2.84-0.67c-1.23,0-2.43,0.29-3.58,0.88c-0.99,0.5-1.95,1.11-2.85,1.8
				l-0.11,0.08l0.06,0.12c0.22,0.43,0.48,0.89,0.76,1.35c0.4,0.67,0.85,1.31,1.33,1.9l-0.97,1.24c-0.86-0.41-1.66-0.83-2.4-1.25
				c-0.56-0.31-1.09-0.64-1.59-0.97l-0.11-0.07l-0.1,0.08c-0.82,0.72-1.6,1.45-2.31,2.19l-0.08,0.08l0.04,0.1
				c0.11,0.26,0.19,0.54,0.24,0.81c0.08,0.42,0.16,0.86,0.24,1.33l0.01,0.13c0,0.73-0.1,1.45-0.29,2.13
				C45.16,67.6,44.84,68.23,44.43,68.74z M45.97,64.57c-0.08-0.47-0.16-0.92-0.24-1.34c-0.05-0.26-0.13-0.52-0.22-0.77
				c0.66-0.68,1.37-1.35,2.12-2.01c0.47,0.31,0.98,0.61,1.5,0.91c0.78,0.44,1.63,0.88,2.54,1.31l0.12,0.06l1.3-1.66l-0.09-0.1
				c-0.51-0.61-0.97-1.27-1.39-1.96c-0.25-0.41-0.48-0.82-0.69-1.21c0.85-0.64,1.76-1.21,2.69-1.68c1.1-0.56,2.25-0.84,3.43-0.84
				c0.98,0,1.88,0.21,2.69,0.63c0.84,0.44,1.57,1.03,2.2,1.77c0.62,0.74,1.11,1.64,1.46,2.66c0.35,1.05,0.53,2.16,0.53,3.32
				c0,2.52-0.47,4.93-1.4,7.17c-0.95,2.3-2.14,4.43-3.54,6.35c-1.41,1.93-2.96,3.7-4.61,5.26c-1.67,1.58-3.22,2.95-4.61,4.07
				c-4.48,3.26-9.35,4.91-14.48,4.91c-1.07,0-2.15-0.07-3.22-0.22c-0.75-0.1-1.52-0.25-2.29-0.42c1.8-8.78,5.56-16.7,11.18-23.52
				c0.2,0.16,0.4,0.33,0.6,0.51c0.5,0.46,1.05,0.92,1.61,1.37l0.86,0.67l0.69-0.84c0.45-0.54,0.78-1.21,1-1.97
				c0.2-0.72,0.3-1.46,0.3-2.22L45.97,64.57z"/>
			<path class="st2" d="M112.31,35.69c-1.42-3.22-3.73-6.26-6.86-9.03c-2.82-2.46-6.04-4.27-9.56-5.4
				c-3.49-1.12-7.12-1.68-10.79-1.68c-2.74,0-5.48,0.29-8.15,0.87c-2.66,0.57-5.21,1.4-7.58,2.46c-2.38,1.06-4.58,2.37-6.55,3.89
				c-1.83,1.42-3.41,3.02-4.69,4.76c-2.23,0.21-4.39,0.79-6.44,1.71c-2.19,1-4.15,2.27-5.82,3.8c-1.68,1.54-3.04,3.3-4.05,5.26
				c-1.03,1.99-1.55,4.07-1.55,6.19c0,1.54,0.32,3.1,0.96,4.64c0.47,1.15,1.15,2.27,2.02,3.33c-0.29,0.19-0.58,0.39-0.86,0.61
				c-0.43,0.33-0.84,0.66-1.22,0.98c-3.04-1.45-6.18-2.18-9.33-2.18c-2.07,0-4.24,0.43-6.47,1.26c-2.23,0.84-4.29,2.07-6.13,3.66
				c-1.84,1.6-3.39,3.57-4.59,5.85c-1.22,2.32-1.85,5.01-1.85,7.97c0,1.78,0.28,3.53,0.84,5.19c0.55,1.64,1.33,3.21,2.31,4.68
				c0.98,1.47,2.18,2.84,3.56,4.08c1.37,1.23,2.91,2.33,4.57,3.26c0.36,0.2,0.74,0.4,1.14,0.59c0.21,0.1,0.44,0.21,0.67,0.34
				c0.37,1.86,0.92,3.63,1.64,5.25c0.81,1.82,1.88,3.42,3.2,4.73c1.32,1.32,2.94,2.37,4.79,3.13c1.85,0.75,4.02,1.13,6.44,1.13
				c2.07,0,4.14-0.28,6.17-0.83c1.99-0.54,3.94-1.24,5.79-2.1c1.85-0.86,3.63-1.84,5.27-2.94c1.65-1.09,3.14-2.22,4.45-3.37
				c2.26-1.94,4.37-4.18,6.27-6.66c1.88-2.45,3.65-5.09,5.26-7.86c1.6-2.76,3.11-5.67,4.47-8.65c1.19-2.61,2.37-5.28,3.49-7.94
				c1.38,0.55,2.75,0.96,4.07,1.23c3.23,0.67,6.36,0.67,9.29,0.07c0.02-0.12,0.05-0.24,0.09-0.36c-2.93,0.62-6.07,0.64-9.31-0.04
				c-1.35-0.28-2.75-0.71-4.16-1.28l-0.15-0.06l-0.06,0.15c-1.14,2.71-2.33,5.43-3.55,8.08c-1.36,2.98-2.86,5.88-4.46,8.63
				c-1.6,2.76-3.37,5.39-5.24,7.82c-1.89,2.46-3.98,4.68-6.22,6.61c-1.29,1.14-2.78,2.26-4.41,3.35c-1.63,1.08-3.39,2.06-5.23,2.91
				c-1.84,0.85-3.77,1.55-5.74,2.08c-2,0.54-4.05,0.81-6.08,0.81c-2.38,0-4.5-0.37-6.32-1.11c-1.82-0.73-3.39-1.76-4.68-3.05
				c-1.29-1.29-2.34-2.84-3.13-4.63c-0.72-1.62-1.27-3.39-1.63-5.26l-0.02-0.08l-0.07-0.04c-0.27-0.14-0.52-0.27-0.76-0.38
				c-0.39-0.19-0.77-0.38-1.12-0.58c-1.63-0.92-3.15-2-4.51-3.21c-1.36-1.22-2.54-2.57-3.5-4.02c-0.96-1.45-1.73-3-2.27-4.61
				c-0.55-1.62-0.83-3.33-0.83-5.08c0-2.91,0.61-5.54,1.81-7.81c1.18-2.25,2.7-4.19,4.52-5.76c1.81-1.57,3.84-2.78,6.03-3.6
				c2.19-0.82,4.33-1.24,6.36-1.24c3.13,0,6.25,0.74,9.28,2.19l0.1,0.05l0.08-0.07c0.41-0.34,0.84-0.69,1.3-1.04
				c0.32-0.25,0.65-0.48,0.99-0.69l0.16-0.1l-0.12-0.15c-0.9-1.08-1.6-2.22-2.08-3.39c-0.62-1.5-0.93-3.02-0.93-4.52
				c0-2.06,0.51-4.09,1.51-6.03c0.99-1.92,2.33-3.66,3.98-5.16c1.64-1.5,3.57-2.76,5.73-3.74c2.03-0.92,4.19-1.49,6.4-1.69
				l0.07-0.01l0.04-0.06c1.27-1.74,2.85-3.34,4.67-4.75c1.94-1.51,4.12-2.8,6.48-3.85c2.35-1.05,4.88-1.87,7.52-2.44
				c2.65-0.57,5.36-0.86,8.08-0.86c3.63,0,7.23,0.56,10.69,1.67c3.48,1.11,6.66,2.91,9.44,5.33c3.1,2.74,5.38,5.74,6.78,8.92
				c1.4,3.17,2.1,6.38,2.1,9.54c0,2.96-0.57,5.85-1.69,8.59c-0.68,1.66-1.52,3.21-2.51,4.64c0.02,0.03,0.06,0.06,0.08,0.1
				c0.06,0,0.13-0.01,0.2-0.01c0.02,0,0.04,0,0.07,0c0.97-1.42,1.8-2.96,2.48-4.6c1.14-2.78,1.71-5.71,1.71-8.72
				C114.44,42.16,113.72,38.9,112.31,35.69z"/>
			<path class="st2" d="M67.32,48c0.91,0.86,1.91,1.5,2.95,1.91c1.05,0.41,2.04,0.62,2.95,0.62c0.68,0,1.24-0.12,1.67-0.34
				c0.43-0.23,0.75-0.51,0.97-0.84c0.24-0.36,0.41-0.78,0.5-1.25c0.11-0.51,0.16-1.03,0.16-1.56c0-1.3-0.34-2.62-1.02-3.92
				c-0.69-1.33-1.62-2.57-2.76-3.67c-1.14-1.1-2.46-2.02-3.93-2.74h0c-1.21-0.59-2.45-1-3.69-1.23l-0.15-0.03l-0.04,0.14
				c-0.55,1.8-0.82,3.5-0.82,5.05c0,1.78,0.31,3.33,0.91,4.61C65.63,46.04,66.41,47.14,67.32,48z M65.2,35.32
				c1.16,0.23,2.32,0.62,3.46,1.18c1.44,0.7,2.74,1.61,3.85,2.68c1.11,1.08,2.02,2.28,2.7,3.59c0.65,1.25,0.98,2.52,0.98,3.77
				c0,0.51-0.05,1.01-0.15,1.49c-0.09,0.42-0.24,0.81-0.45,1.13c-0.19,0.29-0.47,0.53-0.85,0.73c-0.38,0.2-0.89,0.3-1.51,0.3
				c-0.87,0-1.82-0.2-2.83-0.59c-1-0.39-1.96-1.01-2.84-1.84c-0.88-0.83-1.63-1.89-2.23-3.16c-0.59-1.24-0.88-2.74-0.88-4.47
				C64.44,38.65,64.69,37.03,65.2,35.32z"/>
			<path class="st2" d="M30.03,97.01c0.52,1.37,1.27,2.56,2.22,3.55c0.95,0.98,2.11,1.77,3.46,2.32c1.35,0.56,2.87,0.84,4.51,0.84
				c4.95,0,10.19-2.89,15.56-8.6c1.83-1.9,3.67-4.24,5.48-6.94c1.83-2.73,3.68-5.73,5.5-8.92c1.83-3.2,3.69-6.59,5.52-10.08
				l5.5-10.48c1.83-3.48,3.67-6.87,5.48-10.09c1.83-3.25,3.68-6.25,5.51-8.91c1.84-2.68,3.69-5.02,5.52-6.96
				c1.48-1.57,2.99-2.81,4.5-3.67l0.2-0.11l-0.17-0.15c-1.91-1.77-4.1-3.12-6.5-3.99c-2.83-1.03-5.75-1.55-8.67-1.55
				c-1.99,0-3.94,0.23-5.81,0.68c-1.87,0.45-3.64,1.11-5.26,1.97c-1.61,0.85-3.06,1.91-4.3,3.15c-0.94,0.94-1.72,2-2.33,3.15
				l-0.1,0.19l0.21,0.05c1.54,0.38,3.02,0.93,4.39,1.66c1.74,0.91,3.27,2.05,4.54,3.38c1.28,1.34,2.3,2.86,3.03,4.53
				c0.74,1.68,1.11,3.47,1.11,5.32c0,1.84-0.3,3.47-0.88,4.85c-0.58,1.37-1.36,2.53-2.3,3.45c-0.95,0.93-2.05,1.62-3.28,2.07
				c-2.24,0.81-4.62,0.85-6.91,0.22l-0.31-0.09l0.11,0.31c0.1,0.27,0.2,0.56,0.28,0.85c0.22,0.78,0.39,1.57,0.49,2.36
				c0.1,0.79,0.15,1.5,0.15,2.11c0,1.29-0.13,2.57-0.4,3.8c-0.26,1.21-0.59,2.4-0.99,3.53c-0.4,1.13-0.84,2.2-1.32,3.17
				c-0.47,0.97-0.95,1.86-1.43,2.65c-1.97,3.15-4.13,5.86-6.42,8.05c-2.28,2.18-4.63,3.99-6.98,5.38c-2.36,1.39-4.72,2.41-7.03,3.05
				c-2.31,0.64-4.47,0.96-6.44,0.96c-1.84,0-3.87-0.22-6.02-0.64l-0.22-0.04l0.02,0.22C29.38,94.82,29.63,95.97,30.03,97.01z
				 M35.5,94.39c1.99,0,4.19-0.33,6.52-0.97c2.33-0.64,4.73-1.68,7.11-3.08c2.37-1.4,4.74-3.22,7.04-5.42
				c2.31-2.21,4.48-4.94,6.47-8.12c0.48-0.8,0.97-1.7,1.44-2.67c0.48-0.98,0.93-2.06,1.33-3.21c0.4-1.15,0.74-2.35,1-3.57
				c0.27-1.25,0.4-2.56,0.4-3.87c0-0.62-0.05-1.34-0.15-2.15c-0.1-0.81-0.27-1.62-0.5-2.41c-0.06-0.2-0.12-0.39-0.18-0.58
				c2.26,0.56,4.59,0.49,6.8-0.31c1.27-0.46,2.41-1.18,3.4-2.14c0.97-0.95,1.77-2.15,2.37-3.56c0.6-1.41,0.9-3.09,0.9-4.98
				c0-1.89-0.38-3.73-1.14-5.45c-0.75-1.7-1.79-3.26-3.09-4.63c-1.3-1.36-2.86-2.52-4.63-3.45c-1.34-0.7-2.77-1.25-4.26-1.63
				c0.58-1.05,1.31-2.02,2.17-2.89c1.21-1.21,2.63-2.25,4.22-3.09c1.6-0.85,3.34-1.5,5.18-1.94c1.85-0.44,3.78-0.67,5.74-0.67
				c2.88,0,5.76,0.52,8.56,1.53c2.29,0.84,4.39,2.11,6.22,3.77c-1.47,0.88-2.95,2.09-4.38,3.62c-1.83,1.95-3.7,4.31-5.55,7
				c-1.83,2.67-3.69,5.67-5.52,8.93c-1.81,3.22-3.66,6.62-5.49,10.1l-5.5,10.48c-1.83,3.48-3.68,6.86-5.51,10.06
				c-1.82,3.18-3.67,6.17-5.49,8.9c-1.8,2.69-3.63,5.01-5.44,6.9c-5.31,5.64-10.46,8.5-15.32,8.5c-1.59,0-3.07-0.28-4.38-0.82
				c-1.31-0.54-2.43-1.3-3.35-2.25c-0.92-0.95-1.64-2.11-2.15-3.44c-0.36-0.95-0.6-2-0.71-3.11C31.73,94.18,33.7,94.39,35.5,94.39z"
				/>
			<path class="st2" d="M93.17,62.46c2.61-1.12,4.86-2.64,6.68-4.51c1.82-1.88,3.22-4.05,4.17-6.47c0.95-2.42,1.43-4.95,1.43-7.52
				c0-2.31-0.41-4.63-1.21-6.9c-0.71-2.02-1.79-3.97-3.2-5.8l-0.1-0.13l-0.13,0.09c-1.49,1.06-2.9,2.57-4.18,4.49
				c-1.53,2.29-3.01,4.99-4.42,8.04c-1.42,3.08-2.86,6.48-4.26,10.11c-1.28,3.31-2.61,6.68-3.96,10.04l-0.09,0.23h0.38
				C87.58,64.15,90.57,63.58,93.17,62.46z M88.26,54c1.4-3.63,2.83-7.02,4.25-10.09c1.4-3.03,2.88-5.73,4.4-8
				c1.22-1.83,2.55-3.28,3.97-4.31c1.34,1.76,2.37,3.64,3.06,5.57c0.79,2.24,1.19,4.52,1.19,6.79c0,2.53-0.47,5.01-1.41,7.39
				c-0.93,2.37-2.31,4.51-4.1,6.36c-1.79,1.84-4,3.34-6.57,4.44c-2.53,1.09-5.45,1.64-8.65,1.66C85.71,60.54,87.01,57.24,88.26,54z"
				/>
			<path class="st2" d="M33.01,63.07c-2.98-0.63-5.88-0.49-8.5,0.38c-1.54,0.51-2.93,1.27-4.15,2.25c-1.22,0.98-2.28,2.21-3.14,3.64
				c-0.85,1.41-1.46,3.02-1.84,4.82c0.01,1.66,0.29,3.32,0.83,4.92c0.55,1.65,1.36,3.21,2.4,4.65c1.04,1.44,2.29,2.74,3.74,3.85
				c1.06,0.82,2.23,1.53,3.46,2.11l0.24,0.11v-0.96c0-4.81,0.89-9.48,2.65-13.88c1.59-3.98,3.88-7.66,6.82-10.92l0.16-0.18
				l-0.23-0.09C34.64,63.48,33.82,63.24,33.01,63.07z M28.38,74.85c-1.77,4.44-2.67,9.15-2.67,14.01v0.44
				c-1.12-0.55-2.18-1.21-3.16-1.96c-1.42-1.09-2.66-2.37-3.67-3.78c-1.02-1.42-1.81-2.95-2.35-4.57c-0.53-1.57-0.8-3.19-0.82-4.78
				c0.36-1.73,0.97-3.3,1.79-4.68c0.84-1.4,1.87-2.59,3.06-3.55c1.19-0.96,2.55-1.7,4.05-2.2c1.51-0.5,3.12-0.76,4.77-0.76
				c1.16,0,2.35,0.13,3.55,0.38c0.72,0.15,1.44,0.36,2.16,0.62C32.22,67.26,29.96,70.9,28.38,74.85z"/>
		</g>
	</g>
	<g>
		<g>
			<path class="st2" d="M110.28,34.69c-1.36-3.08-3.55-5.97-6.58-8.64c-2.72-2.37-5.77-4.09-9.17-5.18
				c-3.4-1.09-6.88-1.63-10.45-1.63c-2.68,0-5.32,0.28-7.92,0.84c-2.6,0.56-5.06,1.36-7.36,2.39c-2.31,1.03-4.42,2.28-6.32,3.75
				c-1.9,1.48-3.49,3.12-4.77,4.95c-2.29,0.16-4.48,0.71-6.58,1.66c-2.1,0.95-3.94,2.15-5.53,3.61c-1.59,1.46-2.86,3.11-3.81,4.95
				c-0.95,1.84-1.43,3.74-1.43,5.68c0,1.4,0.29,2.8,0.87,4.22c0.58,1.42,1.49,2.77,2.74,4.05c-0.66,0.31-1.3,0.71-1.92,1.19
				c-0.62,0.49-1.2,0.96-1.75,1.43c-3.1-1.59-6.27-2.39-9.49-2.39c-1.94,0-3.97,0.4-6.08,1.19c-2.12,0.8-4.05,1.95-5.79,3.46
				c-1.75,1.51-3.19,3.36-4.34,5.53c-1.14,2.17-1.72,4.66-1.72,7.45c0,1.67,0.26,3.28,0.79,4.83c0.52,1.55,1.25,3.03,2.18,4.42
				c0.93,1.4,2.06,2.69,3.38,3.87c1.32,1.18,2.77,2.22,4.37,3.11c0.35,0.2,0.71,0.38,1.08,0.55c0.37,0.17,0.77,0.38,1.19,0.61
				c0.35,1.98,0.9,3.82,1.66,5.53c0.76,1.71,1.75,3.17,2.97,4.4c1.22,1.22,2.7,2.18,4.42,2.88c1.73,0.7,3.73,1.05,6.02,1.05
				c1.98,0,3.94-0.26,5.88-0.79c1.94-0.52,3.81-1.2,5.62-2.04c1.8-0.83,3.51-1.78,5.12-2.85c1.61-1.07,3.06-2.16,4.34-3.29
				c2.21-1.9,4.25-4.07,6.11-6.49c1.86-2.42,3.59-5.01,5.18-7.74c1.59-2.74,3.07-5.59,4.42-8.56c1.36-2.97,2.66-5.95,3.9-8.94
				c1.67,0.74,3.3,1.27,4.89,1.6c1.59,0.33,3.14,0.5,4.66,0.5c1.94,0,3.8-0.25,5.57-0.75c0.24-0.75,0.74-1.42,1.46-1.88
				c0.66-0.43,1.47-0.53,2.24-0.39c0.18-0.07,0.36-0.13,0.55-0.18c0.01-0.01,0.02-0.01,0.03-0.02c0.17-0.15,0.45-0.26,0.65-0.38
				c0.05-0.03,0.1-0.07,0.15-0.1c0.02-0.01,0.02-0.02,0.04-0.04c0.16-0.21,0.43-0.39,0.63-0.58c0.24-0.24,0.45-0.49,0.68-0.73
				c0.04-0.05,0.07-0.07,0.09-0.09c0.02-0.03,0.03-0.05,0.06-0.1c0.13-0.21,0.28-0.41,0.4-0.63c0.12-0.21,0.37-0.88,0.02,0.03
				c0.64-1.69,2.11-2.68,3.92-2.35c1.27-1.64,2.31-3.46,3.13-5.46c1.09-2.66,1.63-5.42,1.63-8.3
				C112.32,40.86,111.64,37.78,110.28,34.69z M63.42,32.63c1.59,0.19,3.16,0.67,4.72,1.43c1.55,0.76,2.93,1.72,4.13,2.88
				c1.2,1.16,2.17,2.45,2.91,3.87c0.74,1.42,1.11,2.84,1.11,4.28c0,0.58-0.06,1.16-0.17,1.72c-0.12,0.56-0.32,1.07-0.61,1.51
				c-0.29,0.45-0.71,0.82-1.25,1.11c-0.54,0.29-1.22,0.44-2.04,0.44c-1.01,0-2.09-0.22-3.23-0.67c-1.14-0.45-2.21-1.14-3.2-2.07
				c-0.99-0.93-1.82-2.1-2.47-3.49c-0.66-1.4-0.99-3.05-0.99-4.95C62.32,36.82,62.69,34.8,63.42,32.63z M46.83,41.85
				c0.5-1.57,1.23-2.98,2.18-4.22c0.95-1.24,2.1-2.31,3.46-3.2c1.36-0.89,2.91-1.53,4.66-1.92c-0.66,1.2-1.22,2.53-1.69,3.99
				c-0.47,1.46-0.7,2.88-0.7,4.28c0,2.76,0.47,5.12,1.4,7.1c0.93,1.98,2.13,3.63,3.61,4.95c-0.54-0.27-1.22-0.5-2.04-0.7
				c-0.81-0.19-1.67-0.29-2.56-0.29c-1.32,0-2.64,0.17-3.96,0.49c-1.32,0.33-2.6,0.77-3.84,1.31c-0.85-2.29-1.28-4.56-1.28-6.81
				C46.08,45.09,46.33,43.43,46.83,41.85z M41.27,65.49c0.48,0.45,1,0.88,1.54,1.31c0.35-0.43,0.61-0.95,0.79-1.57
				c0.17-0.62,0.26-1.26,0.26-1.92c-0.08-0.47-0.16-0.9-0.23-1.31c-0.08-0.41-0.23-0.81-0.47-1.19c1.01-1.09,2.13-2.15,3.38-3.2
				c0.66,0.47,1.37,0.91,2.12,1.34c0.76,0.43,1.58,0.85,2.47,1.28c-0.54-0.66-1.04-1.36-1.48-2.1c-0.45-0.74-0.82-1.44-1.14-2.1
				c1.13-0.93,2.32-1.72,3.58-2.36c1.26-0.64,2.57-0.96,3.93-0.96c1.16,0,2.23,0.25,3.2,0.76c0.97,0.51,1.81,1.18,2.53,2.04
				c0.72,0.85,1.27,1.86,1.66,3.03c0.39,1.16,0.58,2.39,0.58,3.67c0,2.68-0.5,5.21-1.48,7.6c-0.99,2.39-2.21,4.58-3.67,6.58
				c-1.46,2-3.04,3.8-4.74,5.41c-1.71,1.61-3.28,3-4.72,4.16c-4.7,3.42-9.74,5.12-15.14,5.12c-1.13,0-2.25-0.08-3.38-0.23
				c-1.13-0.15-2.27-0.39-3.43-0.7c1.82-9.78,5.92-18.39,12.28-25.85C40.27,64.64,40.79,65.04,41.27,65.49z M20.87,86.77
				c-1.51-1.16-2.81-2.5-3.9-4.02c-1.09-1.51-1.92-3.13-2.5-4.86c-0.58-1.73-0.87-3.48-0.87-5.27c0.39-1.9,1.04-3.61,1.95-5.12
				c0.91-1.51,2.02-2.79,3.32-3.84c1.3-1.05,2.76-1.84,4.4-2.39c1.63-0.54,3.34-0.81,5.12-0.81c1.24,0,2.5,0.14,3.78,0.41
				c1.28,0.27,2.56,0.7,3.84,1.28c-3.34,3.45-5.87,7.34-7.6,11.67c-1.73,4.33-2.59,8.86-2.59,13.59v1.08c0,0.37,0.02,0.73,0.06,1.08
				C24.05,88.86,22.38,87.93,20.87,86.77z M77.45,57.63c-1.82,3.47-3.66,6.97-5.5,10.48c-1.84,3.51-3.69,6.88-5.53,10.1
				c-1.84,3.22-3.69,6.21-5.53,8.96c-1.84,2.76-3.7,5.1-5.56,7.04c-5.55,5.9-10.92,8.85-16.12,8.85c-1.75,0-3.35-0.3-4.8-0.9
				c-1.46-0.6-2.7-1.44-3.73-2.5c-1.03-1.07-1.82-2.34-2.39-3.81c-0.56-1.47-0.84-3.1-0.84-4.89c2.56,0.58,4.91,0.87,7.04,0.87
				c1.9,0,3.98-0.31,6.23-0.93c2.25-0.62,4.53-1.61,6.84-2.97c2.31-1.36,4.59-3.11,6.84-5.27c2.25-2.15,4.35-4.78,6.29-7.89
				c0.47-0.78,0.93-1.64,1.4-2.59c0.47-0.95,0.89-1.98,1.28-3.08c0.39-1.11,0.71-2.25,0.96-3.44c0.25-1.18,0.38-2.4,0.38-3.64
				c0-0.58-0.05-1.25-0.15-2.01c-0.1-0.76-0.25-1.5-0.47-2.24c-0.21-0.74-0.49-1.41-0.82-2.01c-0.33-0.6-0.75-1.02-1.25-1.25
				c1.94,1.09,3.92,1.63,5.94,1.63c1.16,0,2.31-0.2,3.43-0.61c1.13-0.41,2.12-1.04,3-1.89c0.87-0.85,1.58-1.92,2.12-3.2
				c0.54-1.28,0.81-2.79,0.81-4.54c0-1.75-0.35-3.41-1.05-5.01c-0.7-1.59-1.66-3.03-2.88-4.31c-1.22-1.28-2.67-2.36-4.34-3.23
				c-1.67-0.87-3.45-1.48-5.36-1.83c0.7-1.67,1.7-3.15,3-4.45c1.3-1.3,2.79-2.4,4.48-3.29c1.69-0.89,3.5-1.57,5.44-2.04
				c1.94-0.47,3.94-0.7,6-0.7c3.03,0,6.01,0.53,8.94,1.6c2.93,1.07,5.5,2.77,7.71,5.09c-1.82,0.81-3.64,2.18-5.44,4.1
				c-1.8,1.92-3.62,4.21-5.44,6.87c-1.82,2.66-3.65,5.61-5.47,8.85C81.1,50.8,79.28,54.16,77.45,57.63z M103.74,50.32
				c-0.99,2.52-2.44,4.76-4.34,6.72c-1.9,1.96-4.21,3.52-6.93,4.69c-2.72,1.16-5.78,1.75-9.2,1.75h-0.76
				c-0.23,0-0.49-0.02-0.76-0.06c1.55-3.84,3.04-7.6,4.45-11.26c1.42-3.67,2.84-7.05,4.28-10.16c1.44-3.1,2.93-5.82,4.48-8.15
				c1.55-2.33,3.26-4.06,5.12-5.18c1.75,2.1,3.04,4.33,3.87,6.69c0.83,2.37,1.25,4.75,1.25,7.16
				C105.22,45.2,104.72,47.8,103.74,50.32z"/>
		</g>
	</g>
	<g>
		<g>
			<path class="st2" d="M100.35,62.84c0.17-0.07,0.35-0.13,0.54-0.18c0.01-0.01,0.02-0.01,0.03-0.02c0.17-0.15,0.45-0.26,0.65-0.38
				c0.05-0.03,0.1-0.07,0.15-0.1c0.02-0.01,0.02-0.02,0.04-0.04c0.16-0.21,0.43-0.39,0.63-0.58c0.24-0.24,0.45-0.49,0.68-0.73
				c0.04-0.05,0.07-0.07,0.09-0.09c0.02-0.03,0.03-0.05,0.06-0.1c0.13-0.21,0.28-0.41,0.4-0.63c0.12-0.21,0.37-0.88,0.02,0.03
				c0.65-1.69,2.11-2.69,3.93-2.35c-0.36-0.21-0.77-0.41-1.25-0.58c-0.77-0.28-1.6-0.43-2.5-0.45c-0.9-0.02-1.63,0.2-2.19,0.69
				c-0.45,0.4-0.95,0.99-1.49,1.79c-0.54,0.8-1.05,1.65-1.52,2.57c-0.31,0.6-0.57,1.2-0.82,1.79c0.1-0.08,0.19-0.16,0.3-0.23
				C98.77,62.81,99.58,62.7,100.35,62.84z"/>
		</g>
	</g>
	<g>
		<g>
			<path class="st2" d="M107.17,57.37l-0.19,0.24c0.24,0.01,0.49,0.03,0.75,0.09c0.13,0.03,0.26,0.08,0.39,0.13
				c0.06-0.09,0.12-0.17,0.19-0.25c-0.01-0.01-0.02-0.02-0.03-0.03c1.15-1.56,2.11-3.28,2.87-5.14c1.11-2.71,1.67-5.56,1.67-8.48
				c0-3.12-0.7-6.29-2.08-9.43c-1.38-3.14-3.64-6.1-6.71-8.82c-2.76-2.4-5.9-4.18-9.34-5.28c-6-1.92-12.49-2.12-18.62-0.8
				c-2.62,0.57-5.13,1.38-7.46,2.42c-2.34,1.04-4.5,2.33-6.42,3.82c-1.86,1.45-3.46,3.08-4.74,4.86c-2.25,0.18-4.44,0.75-6.51,1.68
				c-2.14,0.97-4.04,2.21-5.66,3.7c-1.63,1.49-2.95,3.2-3.92,5.09c-0.98,1.91-1.48,3.89-1.48,5.91c0,1.46,0.31,2.94,0.91,4.41
				c0.53,1.29,1.33,2.54,2.38,3.71c-0.48,0.27-0.96,0.58-1.41,0.94c-0.53,0.42-1.04,0.83-1.51,1.22c-3.07-1.52-6.24-2.29-9.42-2.29
				c-1.99,0-4.1,0.41-6.26,1.23c-2.16,0.81-4.16,2.01-5.94,3.55c-1.79,1.55-3.28,3.46-4.45,5.67c-1.18,2.24-1.77,4.82-1.77,7.68
				c0,1.72,0.27,3.4,0.81,4.99c0.53,1.59,1.29,3.11,2.24,4.54c0.95,1.43,2.11,2.76,3.46,3.97c1.34,1.2,2.84,2.27,4.46,3.18
				c0.36,0.2,0.73,0.39,1.11,0.57c0.3,0.14,0.62,0.3,0.96,0.49c0.36,1.92,0.91,3.74,1.65,5.41c0.78,1.76,1.81,3.28,3.07,4.55
				c1.26,1.26,2.81,2.27,4.59,2.99c1.78,0.72,3.87,1.08,6.21,1.08c2.01,0,4.03-0.27,6.01-0.8c1.96-0.53,3.87-1.22,5.7-2.07
				c1.82-0.84,3.57-1.81,5.19-2.89c1.62-1.07,3.1-2.19,4.39-3.33c2.23-1.91,4.31-4.12,6.18-6.57c1.86-2.43,3.62-5.05,5.22-7.8
				c1.59-2.74,3.09-5.63,4.45-8.6c1.28-2.8,2.53-5.65,3.71-8.48c1.54,0.65,3.06,1.13,4.52,1.43c3.59,0.74,7.03,0.65,10.2-0.19
				c0.06-0.4,0.19-0.79,0.39-1.16c-3.19,0.97-6.7,1.13-10.39,0.37c-1.02-0.21-2.07-0.51-3.14-0.9c3.43-0.01,6.55-0.61,9.29-1.79
				c2.77-1.18,5.15-2.8,7.09-4.8c1.94-2,3.43-4.32,4.44-6.89c1.01-2.57,1.52-5.26,1.52-7.98c0-2.45-0.43-4.91-1.28-7.33v0
				c-0.85-2.41-2.18-4.72-3.96-6.85l-0.27-0.33l-0.37,0.22c-1.92,1.16-3.7,2.95-5.28,5.33c-1.56,2.34-3.08,5.11-4.52,8.22
				c-1.43,3.1-2.88,6.53-4.29,10.19c-1.41,3.65-2.9,7.41-4.41,11.16l-0.07-0.03l-0.2,0.47c-1.24,2.98-2.55,5.98-3.89,8.92
				c-1.35,2.94-2.83,5.81-4.4,8.51c-1.58,2.71-3.31,5.3-5.15,7.69c-1.83,2.39-3.87,4.55-6.05,6.42c-1.26,1.11-2.7,2.2-4.28,3.25h0
				c-1.58,1.05-3.28,2-5.06,2.82c-1.77,0.82-3.64,1.49-5.54,2.01c-1.89,0.51-3.82,0.77-5.75,0.77c-2.2,0-4.15-0.33-5.8-1
				c1.25,0.4,2.61,0.6,4.05,0.6c5.32,0,10.87-3.03,16.49-9c1.87-1.95,3.76-4.35,5.61-7.11c1.84-2.76,3.71-5.78,5.55-8.99
				c1.84-3.22,3.7-6.62,5.54-10.12l5.5-10.48c1.82-3.46,3.66-6.85,5.47-10.06c1.81-3.21,3.64-6.18,5.45-8.81
				c1.8-2.62,3.61-4.91,5.39-6.81c1.75-1.86,3.53-3.21,5.28-3.99l0.65-0.29l-0.49-0.51c-2.25-2.37-4.91-4.13-7.9-5.22
				c-2.97-1.08-6.04-1.63-9.11-1.63c-2.09,0-4.14,0.24-6.11,0.71c-1.97,0.47-3.84,1.17-5.56,2.08c-1.73,0.91-3.27,2.05-4.6,3.38
				c-1.34,1.34-2.38,2.89-3.11,4.61l-0.24,0.57l0.61,0.11c1.84,0.34,3.6,0.94,5.21,1.78c1.61,0.85,3.03,1.9,4.21,3.13
				c0.75,0.79,1.4,1.64,1.95,2.55c-0.66-1.04-1.46-2.02-2.38-2.91c-1.23-1.19-2.67-2.19-4.26-2.97c-1.6-0.78-3.23-1.27-4.87-1.47
				l-0.4-0.05l-0.13,0.38c-0.75,2.22-1.13,4.31-1.13,6.22c0,1.97,0.35,3.7,1.04,5.16c0.68,1.45,1.55,2.67,2.58,3.64
				c1.03,0.97,2.16,1.7,3.36,2.17c2.2,0.86,4.34,0.93,5.69,0.21c0.62-0.33,1.1-0.76,1.43-1.27c0.32-0.5,0.55-1.06,0.68-1.68
				c0.12-0.59,0.18-1.2,0.18-1.82c0-0.11,0-0.23-0.01-0.34c0.04,0.38,0.05,0.77,0.05,1.16c0,1.67-0.26,3.13-0.78,4.35
				c-0.52,1.22-1.19,2.24-2.01,3.04c-0.82,0.8-1.77,1.4-2.82,1.78c-2.84,1.03-5.85,0.67-8.68-0.84c-0.1-0.06-0.2-0.12-0.31-0.17
				l-0.11,0.21l-2.04-1.82c-1.42-1.27-2.59-2.88-3.49-4.79c-0.9-1.9-1.35-4.22-1.35-6.89c0-1.34,0.23-2.73,0.67-4.13
				c0.46-1.42,1.01-2.73,1.65-3.9l0.53-0.97l-1.08,0.24c-1.8,0.4-3.42,1.07-4.82,1.99c-1.4,0.92-2.6,2.03-3.59,3.32
				c-0.98,1.28-1.74,2.75-2.26,4.37c-0.52,1.61-0.78,3.34-0.78,5.13c0,2.3,0.44,4.65,1.31,6.99l0.18,0.49l0.48-0.21
				c1.21-0.53,2.47-0.96,3.76-1.28c1.03-0.26,2.08-0.41,3.12-0.46c-0.88,0.16-1.73,0.45-2.56,0.87c-1.29,0.65-2.53,1.47-3.67,2.42
				l-0.3,0.25l0.16,0.35c0.32,0.67,0.71,1.39,1.16,2.14c0.09,0.15,0.19,0.3,0.28,0.45c-0.2-0.11-0.4-0.22-0.6-0.33
				c-0.74-0.42-1.44-0.86-2.08-1.31l-0.32-0.22l-0.3,0.25c-1.25,1.05-2.4,2.14-3.42,3.24l-0.26,0.28l0.19,0.32
				c0.2,0.33,0.34,0.68,0.4,1.03c0.07,0.39,0.15,0.81,0.22,1.26c0,0.6-0.09,1.18-0.24,1.75c-0.1,0.37-0.24,0.69-0.41,0.98
				c-0.38-0.31-0.75-0.63-1.1-0.95l0,0c-0.51-0.46-1.05-0.88-1.61-1.25l-0.37-0.24l-0.28,0.33c-6.39,7.48-10.56,16.26-12.39,26.08
				l-0.08,0.46l0.08,0.02v0.43c0,1.06,0.1,2.07,0.29,3.03c-0.37-1.1-0.66-2.26-0.87-3.46l-0.04-0.24l-0.1-0.05l0.24,0.09l-0.09-0.82
				c-0.04-0.33-0.06-0.67-0.06-1.02v-1.08c0-4.65,0.86-9.16,2.56-13.41c1.69-4.24,4.21-8.12,7.49-11.51l0.49-0.51l-0.64-0.29
				c-1.3-0.59-2.63-1.04-3.95-1.31c-3.2-0.68-6.33-0.52-9.17,0.42c-1.68,0.56-3.21,1.39-4.55,2.47c-1.34,1.08-2.49,2.42-3.43,3.97
				c-0.64,1.07-1.16,2.24-1.55,3.5c0.24-1.73,0.74-3.32,1.49-4.75c1.11-2.11,2.53-3.92,4.22-5.39c1.69-1.47,3.59-2.6,5.64-3.37
				c2.05-0.77,4.04-1.16,5.91-1.16c3.12,0,6.24,0.78,9.26,2.33l0.3,0.15l0.25-0.22c0.53-0.45,1.11-0.93,1.73-1.41
				c0.59-0.46,1.2-0.84,1.83-1.14l0.63-0.3l-0.49-0.5c-1.19-1.23-2.08-2.53-2.63-3.89c-0.55-1.35-0.84-2.7-0.84-4.03
				c0-1.85,0.46-3.68,1.37-5.45c0.92-1.78,2.17-3.4,3.71-4.81c1.54-1.41,3.36-2.6,5.4-3.52c2.03-0.92,4.19-1.46,6.41-1.62l0.24-0.02
				l0.14-0.2c1.25-1.77,2.82-3.4,4.67-4.84c1.86-1.44,3.95-2.68,6.21-3.69c2.27-1.01,4.72-1.8,7.27-2.35
				c5.96-1.29,12.27-1.09,18.11,0.77c3.31,1.06,6.34,2.77,8.99,5.08c2.96,2.62,5.13,5.47,6.45,8.47c1.32,3.01,2,6.04,2,9.03
				c0,2.79-0.54,5.52-1.59,8.11C109.43,53.98,108.4,55.77,107.17,57.37z M86.68,52.34c1.41-3.64,2.84-7.05,4.27-10.13
				c1.42-3.06,2.91-5.78,4.44-8.08c1.4-2.1,2.95-3.71,4.6-4.8c1.56,1.94,2.74,4.03,3.51,6.2c0.81,2.3,1.22,4.66,1.22,6.99
				c0,2.6-0.49,5.16-1.45,7.62c-0.96,2.45-2.38,4.66-4.23,6.56c-1.85,1.9-4.12,3.44-6.77,4.57c-2.64,1.13-5.67,1.71-9,1.71h-0.76
				c-0.01,0-0.03,0-0.04,0C83.92,59.4,85.33,55.82,86.68,52.34z M75.62,46.7c-0.1,0.5-0.29,0.95-0.54,1.34
				c-0.24,0.37-0.6,0.69-1.07,0.94c-0.47,0.25-1.07,0.38-1.8,0.38c-0.94,0-1.97-0.21-3.05-0.64c-1.08-0.42-2.1-1.08-3.04-1.96
				c-0.94-0.88-1.74-2.01-2.37-3.34c-0.62-1.32-0.94-2.91-0.94-4.73c0-1.69,0.32-3.54,0.95-5.5c1.39,0.21,2.79,0.66,4.15,1.32
				c1.5,0.73,2.85,1.67,4,2.79c1.16,1.12,2.11,2.38,2.81,3.74c0.7,1.34,1.05,2.7,1.05,4.05C75.79,45.63,75.73,46.18,75.62,46.7z
				 M62.84,56.01c0.12,0.23,0.24,0.46,0.35,0.71c-0.3-0.56-0.65-1.07-1.04-1.53c-0.01-0.01-0.02-0.03-0.03-0.04
				C62.39,55.34,62.63,55.63,62.84,56.01z M62.01,54.51l-0.17,0.33c-0.3-0.32-0.62-0.62-0.97-0.9L62.01,54.51z M51.08,51.85
				c-1.17,0.29-2.32,0.67-3.43,1.13c-0.71-2.06-1.07-4.12-1.07-6.14c0-1.69,0.25-3.31,0.73-4.82l0,0c0.48-1.51,1.19-2.88,2.1-4.07
				c0.91-1.19,2.04-2.23,3.34-3.09c1.02-0.67,2.17-1.2,3.43-1.57c-0.46,0.95-0.86,1.98-1.21,3.07c-0.48,1.5-0.72,2.99-0.72,4.43
				c0,2.82,0.49,5.28,1.44,7.31c0.63,1.33,1.38,2.53,2.26,3.58c-0.04-0.01-0.08-0.02-0.12-0.03C55.74,51.14,53.36,51.28,51.08,51.85
				z M39.82,64.96c0.39,0.27,0.76,0.57,1.11,0.9c0.49,0.45,1.02,0.9,1.57,1.34l0.38,0.3l0.31-0.38c0.39-0.48,0.69-1.07,0.88-1.75
				c0.19-0.66,0.28-1.35,0.28-2.06l-0.01-0.08c-0.08-0.47-0.16-0.91-0.23-1.32c-0.07-0.35-0.18-0.69-0.34-1.02
				c0.85-0.9,1.79-1.79,2.8-2.65c0.58,0.39,1.2,0.78,1.85,1.14c0.77,0.43,1.61,0.87,2.5,1.3l2.04,0.97l-1.44-1.74
				c-0.52-0.64-1.01-1.32-1.44-2.04c-0.36-0.59-0.67-1.16-0.94-1.7c1-0.8,2.07-1.49,3.18-2.05c1.18-0.6,2.43-0.91,3.7-0.91
				c1.08,0,2.08,0.24,2.97,0.7c0.91,0.47,1.71,1.12,2.38,1.92c0.67,0.8,1.2,1.76,1.57,2.86c0.37,1.11,0.56,2.29,0.56,3.51
				c0,2.6-0.49,5.09-1.45,7.41c-0.97,2.34-2.19,4.52-3.61,6.48c-1.43,1.97-3.01,3.76-4.68,5.34c-1.69,1.59-3.26,2.98-4.67,4.12
				c-4.59,3.34-9.58,5.03-14.84,5.03c-1.1,0-2.21-0.08-3.31-0.23c-0.95-0.13-1.94-0.32-2.92-0.57
				C29.84,80.46,33.81,72.12,39.82,64.96z M34.49,92.33c1.94,0,4.08-0.32,6.36-0.95c2.28-0.63,4.62-1.65,6.96-3.02
				c2.33-1.37,4.67-3.17,6.93-5.34c2.27-2.17,4.41-4.86,6.37-7.99c0.47-0.78,0.95-1.67,1.42-2.63c0.47-0.96,0.91-2.02,1.3-3.14
				c0.39-1.12,0.72-2.3,0.98-3.5c0.26-1.21,0.39-2.47,0.39-3.74c0-0.59-0.05-1.29-0.15-2.07c-0.1-0.78-0.26-1.55-0.48-2.32
				c-0.18-0.61-0.39-1.18-0.65-1.7c2.52,0.9,5.16,0.97,7.64,0.07c1.19-0.43,2.26-1.1,3.18-2c0.91-0.89,1.67-2.03,2.24-3.36
				c0.57-1.34,0.85-2.93,0.85-4.74c0-1.81-0.37-3.56-1.09-5.21c-0.72-1.64-1.72-3.14-2.98-4.45c-1.25-1.31-2.76-2.43-4.47-3.33
				c-1.52-0.8-3.16-1.39-4.88-1.76c0.65-1.38,1.54-2.63,2.64-3.73c1.26-1.26,2.73-2.33,4.36-3.2c1.64-0.87,3.44-1.54,5.33-1.99
				c1.89-0.45,3.87-0.68,5.88-0.68c2.95,0,5.9,0.53,8.76,1.57c2.63,0.96,5,2.46,7.04,4.48c-1.66,0.86-3.33,2.17-4.96,3.91
				c-1.81,1.93-3.66,4.26-5.49,6.93c-1.82,2.66-3.67,5.65-5.5,8.89c-1.81,3.22-3.66,6.61-5.48,10.08l-5.5,10.48
				c-1.83,3.49-3.69,6.88-5.52,10.08c-1.83,3.19-3.68,6.2-5.51,8.93c-1.82,2.72-3.67,5.07-5.51,6.98
				c-5.43,5.77-10.73,8.69-15.76,8.69c-1.67,0-3.22-0.29-4.61-0.87c-1.39-0.57-2.58-1.38-3.56-2.39c-0.98-1.01-1.74-2.24-2.28-3.64
				c-0.47-1.24-0.74-2.61-0.8-4.09C30.31,92.08,32.51,92.33,34.49,92.33z M15.97,67.76c0.88-1.46,1.96-2.71,3.2-3.71
				c1.25-1,2.67-1.78,4.24-2.3c2.67-0.89,5.62-1.03,8.64-0.39c1.03,0.22,2.06,0.54,3.09,0.97c-3.13,3.36-5.55,7.16-7.21,11.31
				c-1.74,4.37-2.63,9-2.63,13.78v1.08c0,0.1,0,0.21,0,0.31c-1.49-0.64-2.88-1.45-4.15-2.43l0,0c-1.47-1.13-2.75-2.45-3.8-3.91
				c-1.05-1.47-1.87-3.06-2.44-4.73c-0.56-1.65-0.84-3.35-0.85-5.06C14.47,70.86,15.1,69.2,15.97,67.76z"/>
		</g>
	</g>
	<path class="st2" d="M108.28,57.55c-4.27,6.68-11.73,8.11-11.73,8.11s-2.63,0.6-3.89,0.65l2.98-3.88l5.7-1.29l2.34-2.55l1.76-1.04
		l2.72-0.91L108.28,57.55z"/>
	<path class="st2" d="M96.58,67.62c0,0,8.11-1.04,13.65-9.5l0.16,0.36c0,0-4.98,8-13.91,9.5"/>
</g>
<radialGradient id="SVGID_2_" cx="90.7853" cy="112.7348" r="135.3113" fx="89.6298" fy="113.0966" gradientUnits="userSpaceOnUse">
	<stop  offset="0.3821" style="stop-color:#FFFFFF"/>
	<stop  offset="0.496" style="stop-color:#D4CCC5"/>
	<stop  offset="0.6166" style="stop-color:#AA9F93"/>
	<stop  offset="0.7312" style="stop-color:#8A7D6E"/>
	<stop  offset="0.8366" style="stop-color:#716455"/>
	<stop  offset="0.9295" style="stop-color:#625546"/>
	<stop  offset="1" style="stop-color:#5D5041"/>
</radialGradient>
<path class="st3" d="M131.66,28.45C131.66,12.74,118.93,0,103.22,0H28.45C12.74,0,0,12.74,0,28.45v56.94
	C0,85.38,81.92,90.45,131.66,28.45z"/>
<g class="st4">
	<radialGradient id="SVGID_3_" cx="-55.3178" cy="-225.1202" r="670.0476" gradientUnits="userSpaceOnUse">
		<stop  offset="0.4594" style="stop-color:#000000"/>
		<stop  offset="0.4679" style="stop-color:#3A3228;stop-opacity:0.9511"/>
		<stop  offset="0.486" style="stop-color:#6C6358;stop-opacity:0.8475"/>
		<stop  offset="0.5049" style="stop-color:#958C82;stop-opacity:0.7396"/>
		<stop  offset="0.5241" style="stop-color:#B7AFA7;stop-opacity:0.6295"/>
		<stop  offset="0.5438" style="stop-color:#D2CCC6;stop-opacity:0.5169"/>
		<stop  offset="0.5641" style="stop-color:#E6E2DF;stop-opacity:0.4007"/>
		<stop  offset="0.5852" style="stop-color:#F4F2F1;stop-opacity:0.2798"/>
		<stop  offset="0.6077" style="stop-color:#FCFCFC;stop-opacity:0.1508"/>
		<stop  offset="0.6341" style="stop-color:#FFFFFF;stop-opacity:0"/>
	</radialGradient>
	<path class="st5" d="M0,85.38v17.83c0,15.71,12.74,28.45,28.45,28.45h74.77c15.71,0,28.45-12.74,28.45-28.45V28.45
		C81.92,90.45,0,85.38,0,85.38z"/>
</g>
</svg>
